<svg width="78" height="43" viewBox="0 0 78 43" xmlns="http://www.w3.org/2000/svg"><title>noun_95828_cc</title><g fill-rule="evenodd" opacity=".1"><path d="M59.4 38.358h17.914c0-8.562-6.685-16.353-15-16.353-3.514 0-6.771 1.284-9.343 3.51 3.429 3.254 5.743 7.706 6.429 12.843z"/><ellipse cx="62.314" cy="13.271" rx="7.971" ry="7.963"/><path d="M24.514 25.6c-2.571-2.31-5.828-3.766-9.428-3.766-8.229 0-15 7.877-15 16.439H18c.686-5.052 3.086-9.419 6.514-12.672z"/><ellipse cx="15.086" cy="13.271" rx="7.971" ry="7.963"/><ellipse cx="38.743" cy="10.788" rx="10.029" ry="10.018"/><path d="M19.8 42.81c0-11.472 8.486-20.805 18.857-20.805 10.372 0 18.857 9.333 18.857 20.806H19.8z"/></g></svg>